External Loads File
version=1
nRows=39
nColumns=13
Range=5.000000e-03-10 seconds
endheader
time 	forceRightX 	forceRightY 	forceRightZ 	pointRightX 	pointRightY 	pointRightZ 	forceLeftX 	forceLeftY 	forceLeftZ 	pointLeftX 	pointLeftY 	pointLeftZ 		
0.005000 9.558010 112.101980 -0.000000 0.438560 0.436438 -0.195872 -10.514709 133.332565 -0.000000 0.193156 0.224427 -0.440963
0.010000 9.272079 112.533268 -0.000000 0.438635 0.436399 -0.195880 -7.823022 134.998860 -0.000000 0.193070 0.224504 -0.440962
0.015000 8.988153 112.937006 -0.000000 0.438689 0.436338 -0.195852 -5.210484 136.680999 -0.000000 0.192988 0.224558 -0.440946
0.020000 8.758699 113.301333 -0.000000 0.438762 0.436119 -0.195857 -2.729073 138.353022 -0.000000 0.192899 0.224589 -0.440952
0.025000 8.276563 113.656382 -0.000000 0.438645 0.436566 -0.195717 -0.816799 140.012854 -0.000000 0.192783 0.224439 -0.440857
0.030000 8.005904 113.969699 -0.000000 0.438586 0.436596 -0.195626 1.071456 141.676279 -0.000000 0.192659 0.224545 -0.440799
0.035000 7.782721 114.256441 -0.000000 0.438714 0.436598 -0.195716 2.756758 143.349509 -0.000000 0.192561 0.224594 -0.440777
0.040000 7.551760 114.529536 -0.000000 0.438723 0.436592 -0.195712 4.222312 145.046402 -0.000000 0.192472 0.224622 -0.440749
0.045000 7.352484 114.800538 -0.000000 0.438730 0.436584 -0.195745 5.560355 146.764720 -0.000000 0.192419 0.224657 -0.440739
0.050000 7.195662 115.089450 -0.000000 0.438709 0.436595 -0.195707 6.776811 148.469574 -0.000000 0.192385 0.224671 -0.440733
0.055000 7.119215 115.417779 -0.000000 0.438696 0.436608 -0.195745 7.845971 150.070617 -0.000000 0.192391 0.224655 -0.440738
0.060000 7.135835 115.795238 -0.000000 0.438651 0.436620 -0.195711 8.685054 151.444448 -0.000000 0.192431 0.224616 -0.440725
0.065000 7.249374 116.207897 -0.000000 0.438601 0.436645 -0.195706 9.252623 152.496632 -0.000000 0.192498 0.224583 -0.440732
0.070000 7.433208 116.627846 -0.000000 0.438568 0.436685 -0.195751 9.541063 153.190616 -0.000000 0.192591 0.224523 -0.440729
0.075000 7.651863 117.021910 -0.000000 0.438497 0.436727 -0.195738 9.565459 153.526599 -0.000000 0.192715 0.224441 -0.440742
0.080000 8.013932 117.347375 -0.000000 0.438431 0.436762 -0.195739 9.539794 153.520385 -0.000000 0.192833 0.224741 -0.440750
0.085000 8.273283 117.596418 -0.000000 0.438371 0.436809 -0.195736 9.211008 153.236593 -0.000000 0.192954 0.224667 -0.440735
0.090000 8.515339 117.752817 -0.000000 0.438312 0.436852 -0.195736 8.748886 152.712962 -0.000000 0.193091 0.224612 -0.440728
0.095000 8.735957 117.809702 -0.000000 0.438277 0.436878 -0.195731 8.211669 152.001726 -0.000000 0.193208 0.224586 -0.440743
0.100000 8.895467 117.763501 -0.000000 0.438262 0.436912 -0.195721 7.617929 151.168072 -0.000000 0.193315 0.224555 -0.440767
0.105000 9.003298 117.611883 -0.000000 0.438249 0.436917 -0.195726 7.028355 150.256013 -0.000000 0.193390 0.224548 -0.440782
0.110000 9.041627 117.364779 -0.000000 0.438264 0.436916 -0.195733 6.453739 149.286455 -0.000000 0.193432 0.224530 -0.440780
0.115000 9.014895 117.045998 -0.000000 0.438301 0.436903 -0.195742 5.936627 148.271382 -0.000000 0.193457 0.224543 -0.440782
0.120000 8.919221 116.691853 -0.000000 0.438354 0.436869 -0.195747 5.505040 147.221320 -0.000000 0.193456 0.224573 -0.440789
0.125000 8.756834 116.339721 -0.000000 0.438426 0.436829 -0.195755 5.182894 146.146836 -0.000000 0.193411 0.224628 -0.440789
0.130000 8.512227 116.019201 -0.000000 0.438511 0.436783 -0.195762 4.949774 145.068687 -0.000000 0.193358 0.224670 -0.440780
0.135000 8.199326 115.738554 -0.000000 0.438588 0.436724 -0.195740 4.799326 144.029720 -0.000000 0.193292 0.224718 -0.440759
0.140000 7.845024 115.485388 -0.000000 0.438664 0.436673 -0.195733 4.754100 143.109123 -0.000000 0.193187 0.224815 -0.440741
0.145000 7.441337 115.244786 -0.000000 0.438758 0.436621 -0.195761 4.822001 142.413550 -0.000000 0.193051 0.224865 -0.440737
0.150000 7.035823 115.011270 -0.000000 0.438842 0.436552 -0.195769 5.081074 142.047389 -0.000000 0.192902 0.224989 -0.440733
0.155000 6.609225 114.801585 -0.000000 0.438890 0.436499 -0.195767 5.520068 142.107526 -0.000000 0.192736 0.225063 -0.440746
0.160000 6.240889 114.637331 -0.000000 0.438966 0.436416 -0.195776 6.245172 142.662994 -0.000000 0.192572 0.225186 -0.440749
0.165000 5.908635 114.545310 -0.000000 0.439006 0.436379 -0.195789 7.218511 143.742602 -0.000000 0.192402 0.225289 -0.440731
0.170000 5.561461 114.543843 -0.000000 0.439040 0.436335 -0.195778 8.332459 145.319580 -0.000000 0.192247 0.225047 -0.440701
0.175000 5.386263 114.627870 -0.000000 0.439066 0.436304 -0.195822 9.731319 147.270321 -0.000000 0.192107 0.225099 -0.440683
0.180000 5.294686 114.793177 -0.000000 0.439053 0.436270 -0.195814 11.166426 149.409162 -0.000000 0.192002 0.225143 -0.440680
0.185000 5.274380 115.024034 -0.000000 0.439041 0.436263 -0.195820 12.477267 151.518573 -0.000000 0.191952 0.225159 -0.440675
0.190000 5.314403 115.306883 -0.000000 0.438955 0.436267 -0.195902 13.522593 153.404355 -0.000000 0.191957 0.225149 -0.440670
0.195000 5.462854 115.621684 -0.000000 0.438977 0.436281 -0.195803 14.268356 154.906723 -0.000000 0.191997 0.225117 -0.440684
